<svg xmlns="http://www.w3.org/2000/svg" viewBox="0 0 564.6 617.23"><defs><style>.cls-1{fill:#fff;}.cls-2{fill:#0673ba;}</style></defs><title>Asset 1</title><g id="Layer_2" data-name="Layer 2"><g id="Layer_1-2" data-name="Layer 1"><path class="cls-1" d="M0,0H564.6V617.23H0ZM72.55,442.35H483c.88,0,1.76,0,2.63,0a10.72,10.72,0,0,0,1.67-.35,4.49,4.49,0,0,0,.23-.92q0-205.8,0-411.62a8.14,8.14,0,0,0-.17-1.29.56.56,0,0,0-.13-.22c-.05-.07-.12-.13-.46-.52H76.3c-.7,0-1.4,0-2.11,0-1.16,0-1.82.48-1.8,1.71,0,.53,0,1.06,0,1.58q0,204.24,0,408.46C72.38,440.1,72.48,441,72.55,442.35Zm95.52,48.09c1.93.26,2.4,1.66,3.16,2.62,6.42,8.22,12.85,16.44,19.14,24.77a5.48,5.48,0,0,0,5.3,2.5c2.52-.19,2.66-.15,2.66-2.74q0-18.42,0-36.85c0-2.66-.12-2.74-2.87-2.78-3.76,0-3.76,0-3.77,3.74,0,7.45,0,14.91,0,22.37,0,1,.28,2.1-1,3.05-.62-.68-1.22-1.27-1.74-1.93-6.34-8.17-12.75-16.3-19-24.59a5.92,5.92,0,0,0-5.75-2.68c-2.75.22-2.83.14-2.84,2.83q0,18.44,0,36.85c0,.77.11,1.53.16,2.22a9.7,9.7,0,0,0,6.34-.1c0-4.79,0-9.69,0-14.58S167.71,495.42,168.07,490.44ZM89.68,537.53c-.08,1.32-.17,2.26-.17,3.2q0,17.25,0,34.49c0,5,.38,5.33,5.45,4.64a6,6,0,0,0,1-.37c.07-.94.21-2,.21-3,0-7.9,0-15.79,0-23.69,0-.9.12-1.8.22-3.23a16.6,16.6,0,0,1,1.74,1.55q5.59,7.14,11.14,14.33c3.33,4.3,6.63,8.63,10,12.9.56.71,1.41,1.61,2.18,1.65a8.86,8.86,0,0,0,4.66-.55v-41.8c-2.2-.1-4.23-.6-6.44.39v14.22c0,2.46.08,4.92,0,7.37-.1,2.29.42,4.64-.35,7.13-2-1-2.75-2.65-3.79-4-6.06-7.74-12-15.53-18.1-23.28a4.76,4.76,0,0,0-2.34-1.88A31.69,31.69,0,0,0,89.68,537.53Zm46.43,21.19h0c0,6.23,0,12.46,0,18.68,0,2.31.18,2.56,2.3,2.56,5.35,0,10.71.11,16-.2a20.85,20.85,0,0,0,19.94-21.57C174.2,549,168,539.35,156,538c-5.63-.65-11.38-.38-17.07-.46-2.73,0-2.8.08-2.8,2.81Q136.11,549.52,136.11,558.72Zm257-59.56c0,11.42,8,21.93,22,22,13.84,0,22.34-10.1,22.38-21.95,0-12.72-9.38-21.88-22-22S393.07,486.61,393.06,499.16Zm-118.62,5.32c1.08-.54,1.6-.84,2.15-1.06a13,13,0,0,0-.84-24.46,24.06,24.06,0,0,0-6.2-.95c-5.52-.13-11.05-.05-16.57,0-.84,0-1.67.16-2.42.23-.58,3.3-.42,39.8.17,41.89h6c.06-1.14.15-2.08.15-3,0-3.16,0-6.32,0-9.47,0-1.85.34-2.11,2.18-2.18,1.49-.06,3,.15,4.46-.05,2.75-.4,4.36.84,5.77,3.05,2.22,3.47,4.67,6.78,7.09,10.12.49.67,1.22,1.54,1.91,1.61a18.74,18.74,0,0,0,7-.26Zm51.49,59.61c1-.52,1.49-.85,2-1.08,5.19-2.07,7.93-5.9,8.15-11.47.19-5.11-1.47-9.41-6.21-11.84a16.39,16.39,0,0,0-6.5-1.89c-6.57-.31-13.15-.24-19.73-.32a4.55,4.55,0,0,0-.52,0,1.32,1.32,0,0,0-1.35,1.33c0,.7,0,1.4,0,2.11q0,17.63,0,35.27c0,3.69.11,3.8,3.85,3.74h.27c2.4-.07,2.56-.19,2.58-2.55,0-3.24,0-6.49,0-9.74,0-2.57.18-2.71,2.65-2.76,1.58,0,3.17.12,4.74,0a4.3,4.3,0,0,1,4.33,2.28c2.5,3.71,5.11,7.35,7.72,11,.44.62,1,1.46,1.65,1.57a16.93,16.93,0,0,0,7.3-.17Zm146-59.59a11,11,0,0,1,1.54-.95c6.3-2.47,8.94-7.26,8.38-13.89a11.45,11.45,0,0,0-6.29-9.68,17.74,17.74,0,0,0-8.36-2c-5.61,0-11.22,0-16.83,0-.44,0-.88,0-1.32,0a1.33,1.33,0,0,0-1.35,1.32c0,.62,0,1.23,0,1.84,0,11.4,0,22.8,0,34.19,0,5.12-1.18,5.13,5.43,4.87a4.57,4.57,0,0,0,1-.33c.06-.86.19-1.79.2-2.73,0-3.24,0-6.49,0-9.73,0-1.75.25-1.94,2-2s3.52.12,5.26-.07c2.13-.22,3.4.71,4.53,2.4,2.44,3.64,5,7.21,7.57,10.74a3.86,3.86,0,0,0,2.15,1.67,67.64,67.64,0,0,0,6.93.08C479.17,514.62,475.22,509.85,471.94,504.5Zm-21.22,55.92a23.68,23.68,0,0,0,2.4,9.92c3.06,6.19,7.89,10.06,15,10.34,7.46.3,12.9-3.13,16.47-9.66a24.62,24.62,0,0,0,2.83-9.77,25.58,25.58,0,0,0-4.08-17c-6.64-9.84-20.26-9-26.38-2.4C452,547.17,450.6,553.51,450.72,560.42ZM295.31,478.16c-.64,4.1-.41,40,.2,41.82,3.05.61,28.74.44,30.66-.21v-5c-1.14-.07-2.08-.18-3-.18-5.7,0-11.41,0-17.11,0-.88,0-1.76,0-2.64-.08a1.62,1.62,0,0,1-1.75-1.82c0-3,0-6,0-9a1.61,1.61,0,0,1,1.79-1.78c.62,0,1.23,0,1.85,0,5,0,10,0,15,0,.92,0,1.84-.15,2.84-.24.06-1.08.13-1.86.13-2.64,0-2.72-.1-2.85-2.79-2.87-4.56,0-9.13,0-13.69,0-1.14,0-2.28,0-3.42-.07-1,0-1.7-.47-1.7-1.59,0-3,0-6,0-8.95,0-1.09.68-1.55,1.7-1.58.62,0,1.23,0,1.85,0,5.88,0,11.76,0,17.64,0,.93,0,1.87-.12,2.9-.19v-5.5Zm-144.34,0c-1.12-.08-1.89-.18-2.67-.18q-12.62,0-25.25,0c-2.9,0-3,.07-3,2.92q0,18.15,0,36.31c0,.92.16,1.85.24,2.69,2.94.63,28.79.55,31-.08v-5c-1.19-.08-2.21-.22-3.23-.22-5.87,0-11.75,0-17.62,0-1.11,0-2.22-.19-3.49-.31-.09-1-.21-1.75-.21-2.52q0-3.42,0-6.84c0-2.78.18-3,3-3,5.17,0,10.35,0,15.52,0,.93,0,1.86-.13,2.9-.21v-5.32c-1.2-.08-2.23-.22-3.25-.22-4.82,0-9.65,0-14.47,0-1.11,0-2.22-.18-3.67-.32,0-3.59,0-7,0-10.38,0-.95.63-1.4,1.53-1.46.7,0,1.41-.05,2.11-.05,5.87,0,11.75,0,17.62,0,.93,0,1.85-.13,2.89-.21Zm30.76,59.53a6.35,6.35,0,0,0-.28,1.12c0,8.34-.14,16.68,0,25a17.58,17.58,0,0,0,3.74,11c2.89,3.56,6.79,5.12,11.22,5.64,4.74.55,9.34.06,13.47-2.44,5-3,7.24-7.88,7.43-13.49.27-8.33.13-16.68.14-25a11.89,11.89,0,0,0-.32-1.84h-6.36v3c0,6.67.06,13.34,0,20a24.94,24.94,0,0,1-.64,6c-1.26,4.89-5.26,7.71-10.6,7.78-5.13.06-9.2-2.67-10.55-7.46a28,28,0,0,1-.94-7c-.13-6.41,0-12.82-.06-19.23,0-1-.14-2-.22-3.15ZM254.15,542a23.78,23.78,0,0,0-18.41-4.8,14.52,14.52,0,0,0-7,2.92c-5.53,4.16-5.93,15.44,1.54,18.63,2.88,1.23,5.95,2,8.92,3.06a44.82,44.82,0,0,1,6.88,2.52,5,5,0,0,1,.08,8.8,11.93,11.93,0,0,1-5,1.46,18,18,0,0,1-11.83-3.68c-.76-.53-1.54-1-2.36-1.57-1.36,1.69-3,2.83-3.6,4.63a3.1,3.1,0,0,0,.35.59c6.85,6.22,17.72,7.41,24.67,4.48,4.64-2,7-5.74,7.09-10.77.14-4.83-2.1-8.2-6.46-10.19a21.41,21.41,0,0,0-2.67-1.1c-2.69-.8-5.43-1.45-8.09-2.32a17.82,17.82,0,0,1-4.76-2.15,4.8,4.8,0,0,1,.21-8.17,10.58,10.58,0,0,1,4.42-1.44c3.63-.36,6.89,1,10,2.72.75.42,1.48.86,2.42,1.4Zm172.31-4.58c-1.51-.08-2.63-.1-3.74-.19a4,4,0,0,0-3.64,1.64q-10.21,12.2-20.55,24.3a4.45,4.45,0,0,0-1,4.77c.74,2.23.65,2.28,3.1,2.28h13.68c1.14,0,2.28,0,3.42,0,2,.09,2.2.35,2.28,2.37,0,1.14,0,2.28,0,3.42,0,4,.07,4.11,4.11,3.92,2.16-.09,2.3-.23,2.33-2.52,0-1.76,0-3.51,0-5.26a1.67,1.67,0,0,1,1.93-1.92c.87,0,1.75,0,2.63,0a1.44,1.44,0,0,0,1.67-1.56c0-.44,0-.88,0-1.32,0-2.25-.17-2.41-2.34-2.49-.79,0-1.58,0-2.37,0a1.42,1.42,0,0,1-1.5-1.48c0-.71-.05-1.41-.05-2.11V537.44ZM110.55,483.68c-6.68-7.77-23.39-9.4-32.31.22-8.12,8.77-7.47,24.24,1.45,32,9.12,7.94,24.67,6.41,31.13-2.28l-4.12-4c-1.44,1-2.74,2.05-4.15,2.91-4,2.45-8.35,3.26-12.84,1.6-5.68-2.1-8.92-6.34-9.85-12.28-1-6.18.73-11.53,5.67-15.49,5.24-4.19,12.22-4.05,18.11.07.9.63,1.79,1.29,2.82,2Zm275.29-5.21c-2.24-.68-28.22-.7-30.73,0,0,.85-.14,1.79-.14,2.73q0,17.51,0,35c0,.79,0,1.58,0,2.36,0,1,.44,1.69,1.56,1.69h4.84c.09-1.31.2-2.25.21-3.18,0-4,0-8.08,0-12.11,0-1.94.22-2.1,2.1-2.2.62,0,1.23,0,1.85,0,4.91,0,9.82,0,14.74,0,.92,0,1.85-.15,2.81-.22v-5.64c-1.21-.08-2.23-.2-3.26-.2-4.83,0-9.65,0-14.48,0a7.53,7.53,0,0,1-2.34-.15c-.55-.19-1.32-.82-1.33-1.27-.11-3.58-.07-7.16-.07-11,1.26-.13,2.28-.31,3.29-.32,6,0,11.94,0,17.9,0,.94,0,1.88-.11,3-.19ZM355.1,580c1.71,0,2.93,0,4.15,0,2.34-.08,2.53-.25,2.55-2.62,0-3.68.1-7.37,0-11.05a9.57,9.57,0,0,1,1.8-5.89c4.56-6.76,9-13.59,13.51-20.41.45-.68.82-1.42,1.45-2.52-2.08,0-3.65.08-5.2,0a3.54,3.54,0,0,0-3.64,1.95c-3,4.94-6.2,9.78-9.34,14.64-.5.77-1.09,1.48-1.86,2.5-.85-1.18-1.5-2-2.05-2.85-3-4.73-6-9.5-9-14.21-.49-.76-1.27-1.75-2-1.85a18.81,18.81,0,0,0-6.95.17c.57,1,1,1.69,1.47,2.41,3.7,5.65,7.19,11.45,11.18,16.89,3.06,4.17,4.62,8.45,4.06,13.64A87.88,87.88,0,0,0,355.1,580Zm-60.88-42c-2.35-.72-31.51-.71-33.72,0a12.79,12.79,0,0,0,.21,5.75c.94,0,1.8.11,2.66.11,2.54,0,5.09,0,7.63,0,2.8,0,3,.19,3,3,0,.17,0,.35,0,.52L274,576c0,4,.07,4.1,4.1,3.94l.79,0c1.15,0,1.81-.54,1.8-1.76,0-.7,0-1.4,0-2.1v-27.9c0-.61,0-1.23,0-1.84.11-2.17.34-2.43,2.47-2.47,2.8,0,5.61,0,8.42,0,.84,0,1.68-.14,2.62-.23Zm-66.9-17.88c.07-1.28.17-2.31.17-3.34q0-14.07,0-28.14c0-.79,0-1.58,0-2.36,0-1.45.72-2.08,2.09-2.09l6.84-.06c5.1,0,5.33-.28,4.56-5.41,0-.14-.2-.27-.3-.4-2.5-.55-31.22-.49-33.5.15.07,1.78-.45,3.64.31,5.66h2.66c2.81,0,5.62,0,8.42.05,1.83.06,2.08.39,2.18,2.21,0,.7,0,1.41,0,2.11q0,14.21,0,28.4c0,1,.12,2,.19,3.22ZM72.38,558.58h0c0,5.69,0,11.39,0,17.08,0,4.12-1,4.43,4.47,4.31.26,0,.53,0,.79,0a1.48,1.48,0,0,0,1.62-1.64c0-.61,0-1.23,0-1.84q0-17.34,0-34.69c0-4.51.4-4.3-4.26-4.27-2.55,0-2.65.13-2.65,2.7Q72.37,549.39,72.38,558.58Zm434.35-514a16.91,16.91,0,0,0,16.75,17.06c9.39,0,16.62-7.43,16.66-17.05,0-8.86-6.37-17-16.64-17A16.79,16.79,0,0,0,506.73,44.57ZM438.55,572.26c-.1,1.14-.2,1.82-.22,2.5-.14,5.46.18,5.75,5.64,5.19l.26,0a1.47,1.47,0,0,0,1.63-1.62c0-1.48,0-3,0-4.44a1.44,1.44,0,0,0-1.61-1.61Z"/><path class="cls-2" d="M72.55,442.35c-.07-1.31-.17-2.25-.17-3.19q0-204.23,0-408.46c0-.52,0-1.05,0-1.58,0-1.23.64-1.73,1.8-1.71.71,0,1.41,0,2.11,0H486.79c.34.39.41.45.46.52a.56.56,0,0,1,.13.22,8.14,8.14,0,0,1,.17,1.29q0,205.81,0,411.62a4.49,4.49,0,0,1-.23.92,10.72,10.72,0,0,1-1.67.35c-.87.07-1.75,0-2.63,0H72.55ZM469.4,235.05V49.67c0-4.29,0-4.3-4.39-4.3H95c-4.56,0-4.56,0-4.56,4.43q0,185.12,0,370.24c0,4.42,0,4.42,4.55,4.42H465.79c3.51,0,3.59-.1,3.61-3.48,0-1,0-1.93,0-2.9Z"/><path class="cls-2" d="M168.07,490.44c-.36,5-.12,9.85-.17,14.7s0,9.79,0,14.58a9.7,9.7,0,0,1-6.34.1c-.05-.69-.16-1.45-.16-2.22q0-18.42,0-36.85c0-2.69.09-2.61,2.84-2.83A5.92,5.92,0,0,1,170,480.6c6.21,8.29,12.62,16.42,19,24.59.52.66,1.12,1.25,1.74,1.93,1.26-.95,1-2.07,1-3.05,0-7.46,0-14.92,0-22.37,0-3.78,0-3.78,3.77-3.74,2.75,0,2.87.12,2.87,2.78q0,18.43,0,36.85c0,2.59-.14,2.55-2.66,2.74a5.48,5.48,0,0,1-5.3-2.5c-6.29-8.33-12.72-16.55-19.14-24.77C170.47,492.1,170,490.7,168.07,490.44Z"/><path class="cls-2" d="M89.68,537.53a31.69,31.69,0,0,1,5.38.09,4.76,4.76,0,0,1,2.34,1.88c6.06,7.75,12,15.54,18.1,23.28,1,1.34,1.82,3,3.79,4,.77-2.49.25-4.84.35-7.13.1-2.45,0-4.91,0-7.37V538.05c2.21-1,4.24-.49,6.44-.39v41.8a8.86,8.86,0,0,1-4.66.55c-.77,0-1.62-.94-2.18-1.65-3.37-4.27-6.67-8.6-10-12.9q-5.55-7.17-11.14-14.33a16.6,16.6,0,0,0-1.74-1.55c-.1,1.43-.22,2.33-.22,3.23,0,7.9,0,15.79,0,23.69,0,1-.14,2-.21,3a6,6,0,0,1-1,.37c-5.07.69-5.45.37-5.45-4.64q0-17.25,0-34.49C89.51,539.79,89.6,538.85,89.68,537.53Z"/><path class="cls-2" d="M136.11,558.72q0-9.19,0-18.41c0-2.73.07-2.85,2.8-2.81,5.69.08,11.44-.19,17.07.46,12,1.39,18.21,11,18.4,20.23a20.85,20.85,0,0,1-19.94,21.57c-5.33.31-10.69.19-16,.2-2.12,0-2.29-.25-2.3-2.56,0-6.22,0-12.45,0-18.68Zm7.06-14.59c0,1-.14,2-.14,2.89q0,11.82,0,23.65c0,.44,0,.87,0,1.31,0,1.17.49,1.83,1.7,1.81a89.42,89.42,0,0,0,10-.21c7.56-.93,12.7-7.23,12.63-15s-5.47-13.9-13-14.67c-3-.31-6.12-.18-9.19-.19A9.65,9.65,0,0,0,143.17,544.13Z"/><path class="cls-2" d="M393.06,499.16c0-12.55,9.68-22,22.37-22s22.06,9.24,22,22c0,11.85-8.54,22-22.38,21.95C401.06,521.09,393.05,510.58,393.06,499.16Zm7-.08c.24,1.46.39,2.95.75,4.38a14.92,14.92,0,0,0,22.5,9.16c5.79-3.66,8.43-11.33,6.29-18.28a14.9,14.9,0,0,0-18-10.49C404.94,485.33,400.18,491.71,400,499.08Z"/><path class="cls-2" d="M274.44,504.48l10.94,15.42a18.74,18.74,0,0,1-7,.26c-.69-.07-1.42-.94-1.91-1.61-2.42-3.34-4.87-6.65-7.09-10.12-1.41-2.21-3-3.45-5.77-3.05-1.46.2-3,0-4.46.05-1.84.07-2.14.33-2.18,2.18-.07,3.15,0,6.31,0,9.47,0,.94-.09,1.88-.15,3h-6c-.59-2.09-.75-38.59-.17-41.89.75-.07,1.58-.23,2.42-.23,5.52,0,11-.1,16.57,0a24.06,24.06,0,0,1,6.2.95,13,13,0,0,1,.84,24.46C276,503.64,275.52,503.94,274.44,504.48Zm-17.51-12.9h0c0,1.75,0,3.5,0,5.25.06,2.1.33,2.42,2.48,2.47,3.33.07,6.66.12,10,0a11.39,11.39,0,0,0,4.05-1,6.85,6.85,0,0,0,4.32-6.08c.26-4.09-1.91-7.22-6.17-7.76a124.33,124.33,0,0,0-12.82-.46c-1.3,0-1.85.8-1.84,2.05Z"/><path class="cls-2" d="M325.93,564.09l10.94,15.47a16.93,16.93,0,0,1-7.3.17c-.63-.11-1.21-1-1.65-1.57-2.61-3.63-5.22-7.27-7.72-11a4.3,4.3,0,0,0-4.33-2.28c-1.57.15-3.16,0-4.74,0-2.47.05-2.62.19-2.65,2.76,0,3.25,0,6.5,0,9.74,0,2.36-.18,2.48-2.58,2.55h-.27c-3.74.06-3.85-.05-3.85-3.74q0-17.64,0-35.27c0-.71,0-1.41,0-2.11a1.32,1.32,0,0,1,1.35-1.33,4.55,4.55,0,0,1,.52,0c6.58.08,13.16,0,19.73.32a16.39,16.39,0,0,1,6.5,1.89c4.74,2.43,6.4,6.73,6.21,11.84-.22,5.57-3,9.4-8.15,11.47C327.42,563.24,326.92,563.57,325.93,564.09ZM308.52,544c0,4.7,0,9.07,0,13.44,0,1.29,1,1.51,2,1.51,3.5,0,7,.06,10.51-.08a11.16,11.16,0,0,0,3.79-1,7.19,7.19,0,0,0,4.41-7.13,6.8,6.8,0,0,0-5.26-6.46,18.56,18.56,0,0,0-4.39-.65c-2.54-.1-5.09-.06-7.63,0C311,543.67,310,543.86,308.52,544Z"/><path class="cls-2" d="M471.94,504.5c3.28,5.35,7.23,10.12,10.85,15.76a67.64,67.64,0,0,1-6.93-.08,3.86,3.86,0,0,1-2.15-1.67c-2.58-3.53-5.13-7.1-7.57-10.74-1.13-1.69-2.4-2.62-4.53-2.4-1.74.19-3.51,0-5.26.07s-2,.25-2,2c-.06,3.24,0,6.49,0,9.73,0,.94-.14,1.87-.2,2.73a4.57,4.57,0,0,1-1,.33c-6.61.26-5.41.25-5.43-4.87-.06-11.39,0-22.79,0-34.19,0-.61,0-1.22,0-1.84a1.33,1.33,0,0,1,1.35-1.32c.44,0,.88,0,1.32,0,5.61,0,11.22,0,16.83,0a17.74,17.74,0,0,1,8.36,2,11.45,11.45,0,0,1,6.29,9.68c.56,6.63-2.08,11.42-8.38,13.89A11,11,0,0,0,471.94,504.5Zm-17.46-5.71c.37.17.61.37.85.37,4.28,0,8.58.24,12.85-.05a7.27,7.27,0,0,0,6.42-4.77c1.73-4.35-.65-9.12-5.42-9.78-4.55-.63-9.23-.33-13.86-.42-.23,0-.46.22-.84.41Z"/><path class="cls-2" d="M450.72,560.42c-.12-6.91,1.24-13.25,6.2-18.6,6.12-6.6,19.74-7.44,26.38,2.4a25.58,25.58,0,0,1,4.08,17,24.62,24.62,0,0,1-2.83,9.77c-3.57,6.53-9,10-16.47,9.66-7.07-.28-11.9-4.15-15-10.34A23.68,23.68,0,0,1,450.72,560.42Zm29.79-1.13c0-4.54-.91-8.51-3.4-12-4.22-5.9-12-6-16.2-.06-3,4.22-3.69,9-3.14,14a17.17,17.17,0,0,0,4.12,10,9.37,9.37,0,0,0,14.17.22,13.92,13.92,0,0,0,2-2.75A19.62,19.62,0,0,0,480.51,559.29Z"/><path class="cls-2" d="M295.31,478.16h30.45v5.5c-1,.07-2,.19-2.9.19-5.88,0-11.76,0-17.64,0-.62,0-1.23,0-1.85,0-1,0-1.69.49-1.7,1.58,0,3,0,6,0,8.95,0,1.12.72,1.54,1.7,1.59,1.14.06,2.28.06,3.42.07,4.56,0,9.13,0,13.69,0,2.69,0,2.8.15,2.79,2.87,0,.78-.07,1.56-.13,2.64-1,.09-1.92.24-2.84.24-5,0-10,0-15,0-.62,0-1.23,0-1.85,0a1.61,1.61,0,0,0-1.79,1.78c0,3,0,6,0,9a1.62,1.62,0,0,0,1.75,1.82c.88,0,1.76.07,2.64.08,5.7,0,11.41,0,17.11,0,.94,0,1.88.11,3,.18v5c-1.92.65-27.61.82-30.66.21C294.9,518.15,294.67,482.26,295.31,478.16Z"/><path class="cls-2" d="M151,478.15v5.49c-1,.08-2,.21-2.89.21-5.87,0-11.75,0-17.62,0-.7,0-1.41,0-2.11.05-.9.06-1.52.51-1.53,1.46,0,3.39,0,6.79,0,10.38,1.45.14,2.56.32,3.67.32,4.82,0,9.65,0,14.47,0,1,0,2.05.14,3.25.22v5.32c-1,.08-2,.21-2.9.21-5.17,0-10.35,0-15.52,0-2.83,0-3,.2-3,3q0,3.42,0,6.84c0,.77.12,1.54.21,2.52,1.27.12,2.38.31,3.49.31,5.87,0,11.75,0,17.62,0,1,0,2,.14,3.23.22v5c-2.23.63-28.08.71-31,.08-.08-.84-.24-1.77-.24-2.69q0-18.17,0-36.31c0-2.85.08-2.92,3-2.92q12.63,0,25.25,0C149.08,478,149.85,478.07,151,478.15Z"/><path class="cls-2" d="M181.73,537.68h6c.08,1.12.22,2.14.22,3.15,0,6.41-.07,12.82.06,19.23a28,28,0,0,0,.94,7c1.35,4.79,5.42,7.52,10.55,7.46,5.34-.07,9.34-2.89,10.6-7.78a24.94,24.94,0,0,0,.64-6c.07-6.67,0-13.34,0-20v-3h6.36a11.89,11.89,0,0,1,.32,1.84c0,8.34.13,16.69-.14,25-.19,5.61-2.42,10.46-7.43,13.49-4.13,2.5-8.73,3-13.47,2.44-4.43-.52-8.33-2.08-11.22-5.64a17.58,17.58,0,0,1-3.74-11c-.16-8.34,0-16.68,0-25A6.35,6.35,0,0,1,181.73,537.68Z"/><path class="cls-2" d="M254.15,542l-3.52,5c-.94-.54-1.67-1-2.42-1.4-3.1-1.75-6.36-3.08-10-2.72a10.58,10.58,0,0,0-4.42,1.44,4.8,4.8,0,0,0-.21,8.17,17.82,17.82,0,0,0,4.76,2.15c2.66.87,5.4,1.52,8.09,2.32a21.41,21.41,0,0,1,2.67,1.1c4.36,2,6.6,5.36,6.46,10.19-.14,5-2.45,8.81-7.09,10.77-6.95,2.93-17.82,1.74-24.67-4.48a3.1,3.1,0,0,1-.35-.59c.64-1.8,2.24-2.94,3.6-4.63.82.54,1.6,1,2.36,1.57a18,18,0,0,0,11.83,3.68,11.93,11.93,0,0,0,5-1.46,5,5,0,0,0-.08-8.8,44.82,44.82,0,0,0-6.88-2.52c-3-1-6-1.83-8.92-3.06-7.47-3.19-7.07-14.47-1.54-18.63a14.52,14.52,0,0,1,7-2.92A23.78,23.78,0,0,1,254.15,542Z"/><path class="cls-2" d="M426.46,537.44v23.79c0,.7,0,1.4.05,2.11a1.42,1.42,0,0,0,1.5,1.48c.79,0,1.58,0,2.37,0,2.17.08,2.32.24,2.34,2.49,0,.44,0,.88,0,1.32a1.44,1.44,0,0,1-1.67,1.56c-.88,0-1.76,0-2.63,0a1.67,1.67,0,0,0-1.93,1.92c0,1.75,0,3.5,0,5.26,0,2.29-.17,2.43-2.33,2.52-4,.19-4.11.12-4.11-3.92,0-1.14,0-2.28,0-3.42-.08-2-.32-2.28-2.28-2.37-1.14,0-2.28,0-3.42,0H400.6c-2.45,0-2.36,0-3.1-2.28a4.45,4.45,0,0,1,1-4.77q10.37-12.09,20.55-24.3a4,4,0,0,1,3.64-1.64C423.83,537.34,425,537.36,426.46,537.44Zm-20.77,27a3.33,3.33,0,0,0,.89.34c3.85,0,7.7.1,11.55,0,1.54,0,1.83-.4,1.85-2.22,0-4.46,0-8.93,0-13.39a4.46,4.46,0,0,0-.49-1.39C417.36,549.1,406.55,562.13,405.69,564.44Z"/><path class="cls-2" d="M110.55,483.68l-4.09,4.81c-1-.74-1.92-1.4-2.82-2-5.89-4.12-12.87-4.26-18.11-.07-4.94,4-6.64,9.31-5.67,15.49.93,5.94,4.17,10.18,9.85,12.28,4.49,1.66,8.81.85,12.84-1.6,1.41-.86,2.71-1.89,4.15-2.91l4.12,4c-6.46,8.69-22,10.22-31.13,2.28-8.92-7.78-9.57-23.25-1.45-32C87.16,474.28,103.87,475.91,110.55,483.68Z"/><path class="cls-2" d="M385.84,478.47v5.29c-1.13.08-2.07.19-3,.19-6,0-11.93,0-17.9,0-1,0-2,.19-3.29.32,0,3.82,0,7.4.07,11,0,.45.78,1.08,1.33,1.27a7.53,7.53,0,0,0,2.34.15c4.83,0,9.65,0,14.48,0,1,0,2.05.12,3.26.2v5.64c-1,.07-1.89.21-2.81.22-4.92,0-9.83,0-14.74,0-.62,0-1.23,0-1.85,0-1.88.1-2.08.26-2.1,2.2,0,4,0,8.07,0,12.11,0,.93-.12,1.87-.21,3.18h-4.84c-1.12,0-1.54-.66-1.56-1.69,0-.78,0-1.57,0-2.36q0-17.5,0-35c0-.94.1-1.88.14-2.73C357.62,477.77,383.6,477.79,385.84,478.47Z"/><path class="cls-2" d="M355.1,580a87.88,87.88,0,0,1,.06-9.22c.56-5.19-1-9.47-4.06-13.64-4-5.44-7.48-11.24-11.18-16.89-.47-.72-.9-1.46-1.47-2.41a18.81,18.81,0,0,1,6.95-.17c.75.1,1.53,1.09,2,1.85,3.05,4.71,6,9.48,9,14.21.55.87,1.2,1.67,2.05,2.85.77-1,1.36-1.73,1.86-2.5,3.14-4.86,6.32-9.7,9.34-14.64a3.54,3.54,0,0,1,3.64-1.95c1.55.1,3.12,0,5.2,0-.63,1.1-1,1.84-1.45,2.52-4.49,6.82-8.95,13.65-13.51,20.41a9.57,9.57,0,0,0-1.8,5.89c.12,3.68.06,7.37,0,11.05,0,2.37-.21,2.54-2.55,2.62C358,580,356.81,580,355.1,580Z"/><path class="cls-2" d="M294.22,538v5.62c-.94.09-1.78.22-2.62.23-2.81,0-5.62,0-8.42,0-2.13,0-2.36.3-2.47,2.47,0,.61,0,1.23,0,1.84v27.9c0,.7,0,1.4,0,2.1,0,1.22-.65,1.73-1.8,1.76l-.79,0c-4,.16-4.11.09-4.1-3.94l0-28.69c0-.17,0-.35,0-.52-.05-2.78-.21-3-3-3-2.54,0-5.09,0-7.63,0-.86,0-1.72-.07-2.66-.11a12.79,12.79,0,0,1-.21-5.75C262.71,537.29,291.87,537.28,294.22,538Z"/><path class="cls-2" d="M227.32,520.12H221c-.07-1.18-.19-2.2-.19-3.22q0-14.2,0-28.4c0-.7,0-1.41,0-2.11-.1-1.82-.35-2.15-2.18-2.21-2.8-.09-5.61,0-8.42-.05h-2.66c-.76-2-.24-3.88-.31-5.66,2.28-.64,31-.7,33.5-.15.1.13.28.26.3.4.77,5.13.54,5.4-4.56,5.41l-6.84.06c-1.37,0-2.12.64-2.09,2.09,0,.78,0,1.57,0,2.36q0,14.07,0,28.14C227.49,517.81,227.39,518.84,227.32,520.12Z"/><path class="cls-2" d="M72.38,558.58q0-9.2,0-18.39c0-2.57.1-2.68,2.65-2.7,4.66,0,4.25-.24,4.26,4.27q0,17.34,0,34.69c0,.61,0,1.23,0,1.84a1.48,1.48,0,0,1-1.62,1.64c-.26,0-.53,0-.79,0-5.42.12-4.45-.19-4.47-4.31,0-5.69,0-11.39,0-17.08Z"/><path d="M506.73,44.57a16.79,16.79,0,0,1,16.77-17c10.27.06,16.68,8.18,16.64,17,0,9.62-7.27,17.05-16.66,17.05A16.91,16.91,0,0,1,506.73,44.57Zm17.11-14.2c-7.22-.2-13.6,6-13.94,13.33-.39,8.37,6,15.19,13.45,15.15s13.57-5.53,13.76-14C537.28,36.92,531.42,30.57,523.84,30.37Z"/><path class="cls-2" d="M438.55,572.26h5.71a1.44,1.44,0,0,1,1.61,1.61c0,1.48,0,3,0,4.44a1.47,1.47,0,0,1-1.63,1.62l-.26,0c-5.46.56-5.78.27-5.64-5.19C438.35,574.08,438.45,573.4,438.55,572.26Z"/><path class="cls-1" d="M469.4,235.05v183c0,1,0,1.93,0,2.9,0,3.38-.1,3.45-3.61,3.48H95c-4.55,0-4.55,0-4.55-4.42q0-185.12,0-370.24c0-4.42,0-4.43,4.56-4.43H465c4.39,0,4.39,0,4.39,4.3ZM215.84,141.21c-.61-.68-1-1.23-1.52-1.69a37.64,37.64,0,0,0-14.23-8.24,49.55,49.55,0,0,0-17.69-2c-13.11.84-23.85,6.25-31.35,17.2-6.28,9.17-8.26,19.46-6.53,30.37,2.12,13.35,9.14,23.33,21.21,29.6,7.05,3.66,14.62,4.57,22.47,4.17a39.23,39.23,0,0,0,27.05-12.38,5.92,5.92,0,0,0,.71-1c-3.57-3.59-7-7-10.5-10.53a30.3,30.3,0,0,1-2.45,1.86c-2.74,1.72-5.35,3.76-8.3,5a23.3,23.3,0,0,1-31.24-13.15,27.19,27.19,0,0,1,.2-21.52c3.41-7.89,9.41-12.86,18-14.11,7.08-1,13.55.94,19.33,5.17,1.4,1,2.78,2.07,4.39,3.28Zm189.27-11c-1.09-.07-1.94-.18-2.8-.18-2.81,0-5.62.1-8.42-.05a5.19,5.19,0,0,0-4.94,2.32,14.71,14.71,0,0,1-1,1.21l-25.1,29.07c-4.64,5.37-9.27,10.76-13.95,16.1a3.47,3.47,0,0,0-.79,3.61c.54,1.84.85,3.75,1.31,5.63,1.17,4.73.45,4.2,5.23,4.21,10.44,0,20.87,0,31.31,0,3.24,0,3.37.14,3.39,3.45,0,3.59,0,7.19,0,10.79,0,.85.08,1.7.12,2.65a15.29,15.29,0,0,0,2,.32c3.86,0,7.71,0,11.57,0,2.14,0,2.31-.21,2.32-2.5,0-3.77,0-7.54,0-11.31v-3.2l10.46-.38V178.82c-2.61,0-5,0-7.47,0-2.88,0-2.95-.11-3-3v-1.31q0-20.52,0-41.05C405.32,132.45,405.19,131.43,405.11,130.23Zm-117.65.12c-1.13-.13-1.89-.29-2.65-.3-3.16,0-6.32,0-9.47,0a4.21,4.21,0,0,0-3.59,1.71c-8.44,9.85-17,19.63-25.44,29.45-5,5.84-10,11.73-15.11,17.53a3.52,3.52,0,0,0-.84,3.59c.52,1.94.93,3.92,1.38,5.88,1,4.52.62,4,4.89,4,10.52,0,21.05,0,31.57,0,3.36,0,3.53.19,3.55,3.61s0,7,0,10.52c0,.93.14,1.85.23,2.89h15.31c.06-1.05.14-1.9.14-2.75,0-3.6,0-7.19,0-10.79,0-3.4.09-3.47,3.6-3.48,1.4,0,2.81,0,4.21,0,.84,0,1.68-.15,2.77-.25,0-4.09,0-7.93,0-11.77,0-1-.74-1.31-1.62-1.32-1.66,0-3.33,0-5,0-3.94,0-4,0-4-3.91q0-20.52,0-41Zm106,163.31c.32-.6.35-.81.48-.89.68-.39,1.37-.76,2.07-1.13,7.12-3.73,11.73-9.34,12.87-17.47,1.29-9.22-1.91-17.29-10.1-22.27A35.35,35.35,0,0,0,380.14,247c-12.81-.06-25.62,0-38.43,0-2.88,0-3,.12-3,2.94q0,44.86,0,89.73c0,.93.14,1.85.23,2.86,1,.08,1.64.19,2.32.19,13.86,0,27.72,0,41.58-.05a41.9,41.9,0,0,0,15.86-3.31c9.44-3.91,16.21-12,15.7-23.77a19.77,19.77,0,0,0-6.93-14.76c-3.36-2.95-7.37-4.69-11.52-6.17C395.17,294.35,394.39,294,393.41,293.66Zm-76.17,48.69c-.47-1.09-.85-2.05-1.28-3q-20.7-44.78-41.43-89.56c-2-4.3-1-3.58-6-3.7a2.61,2.61,0,0,0-2.87,1.76c-.25.66-.58,1.28-.88,1.91q-12.93,27.95-25.85,55.9-7.9,17.07-15.79,34.16c-.37.82-.66,1.68-1.13,2.86a32.18,32.18,0,0,1,3.6,0c2.07.27,3.15-.56,4-2.49,3.23-7.39,6.71-14.68,9.92-22.08a3.68,3.68,0,0,1,3.94-2.6q26.05.09,52.13,0a3.56,3.56,0,0,1,3.79,2.46c2.9,6.67,6,13.28,9,19.89,2.34,5.08,2.36,5.07,8,4.75A7.57,7.57,0,0,0,317.24,342.35Zm16.39-193c-1-.08-1.73-.17-2.42-.18-3.69,0-7.38,0-11.06,0-2.73,0-2.85.13-2.85,2.81q0,10.53,0,21.06,0,16.86,0,33.7c0,2.42.16,2.58,2.5,2.6,3.86,0,7.73,0,11.59,0a19.14,19.14,0,0,0,2.23-.28ZM208.31,336.81h-3.42q-24.22,0-48.44,0c-4.78,0-4.81.6-4.8-4.93q0-40.39,0-80.81a10.28,10.28,0,0,0-.1-2.61,2.07,2.07,0,0,0-1.24-1.35c-1.52-.16-3.12-.47-4.54.35-.61,3.51-.41,93.08.2,95,3.06.56,60.38.39,62.34-.24Zm125.78-195.5V127.47a4.84,4.84,0,0,0-1.15-.33c-4.63,0-9.27-.06-13.91,0-1.69,0-1.92.29-1.95,2.08-.06,3.33-.06,6.65,0,10,0,2.2.21,2.38,2.45,2.4,4.2,0,8.4,0,12.6,0A16.41,16.41,0,0,0,334.09,141.31Z"/><path class="cls-1" d="M143.17,544.13a9.65,9.65,0,0,1,1.93-.43c3.07,0,6.15-.12,9.19.19,7.57.77,13,7,13,14.67s-5.07,14.09-12.63,15a89.42,89.42,0,0,1-10,.21c-1.21,0-1.73-.64-1.7-1.81,0-.44,0-.87,0-1.31q0-11.82,0-23.65C143,546.08,143.12,545.13,143.17,544.13Z"/><path class="cls-1" d="M400,499.08c.15-7.37,4.91-13.75,11.5-15.23a14.9,14.9,0,0,1,18,10.49c2.14,7-.5,14.62-6.29,18.28a14.92,14.92,0,0,1-22.5-9.16C400.42,502,400.27,500.54,400,499.08Z"/><path class="cls-1" d="M256.93,491.58v-5.51c0-1.25.54-2.08,1.84-2.05a124.33,124.33,0,0,1,12.82.46c4.26.54,6.43,3.67,6.17,7.76a6.85,6.85,0,0,1-4.32,6.08,11.39,11.39,0,0,1-4.05,1c-3.32.13-6.65.08-10,0-2.15-.05-2.42-.37-2.48-2.47-.05-1.75,0-3.5,0-5.25Z"/><path class="cls-1" d="M308.52,544c1.43-.15,2.46-.34,3.49-.36,2.54,0,5.09-.08,7.63,0a18.56,18.56,0,0,1,4.39.65,6.8,6.8,0,0,1,5.26,6.46,7.19,7.19,0,0,1-4.41,7.13,11.16,11.16,0,0,1-3.79,1c-3.5.14-7,.08-10.51.08-1,0-2-.22-2-1.51C308.5,553.08,308.52,548.71,308.52,544Z"/><path class="cls-1" d="M454.48,498.79V484.55c.38-.19.61-.41.84-.41,4.63.09,9.31-.21,13.86.42,4.77.66,7.15,5.43,5.42,9.78a7.27,7.27,0,0,1-6.42,4.77c-4.27.29-8.57.07-12.85.05C455.09,499.16,454.85,499,454.48,498.79Z"/><path class="cls-1" d="M480.51,559.29a19.62,19.62,0,0,1-2.45,9.51,13.92,13.92,0,0,1-2,2.75,9.37,9.37,0,0,1-14.17-.22,17.17,17.17,0,0,1-4.12-10c-.55-5,.16-9.83,3.14-14,4.18-5.9,12-5.84,16.2.06C479.6,550.78,480.48,554.75,480.51,559.29Z"/><path class="cls-1" d="M405.69,564.44c.86-2.31,11.67-15.34,13.77-16.62a4.46,4.46,0,0,1,.49,1.39c.05,4.46.07,8.93,0,13.39,0,1.82-.31,2.2-1.85,2.22-3.85.06-7.7,0-11.55,0A3.33,3.33,0,0,1,405.69,564.44Z"/><path class="cls-1" d="M523.84,30.37c7.58.2,13.44,6.55,13.27,14.46-.19,8.49-6.33,14-13.76,14S509.51,52.07,509.9,43.7C510.24,36.39,516.62,30.17,523.84,30.37Zm-6.33,5.25V54.49l2.9-.2V46.6c4.35-.52,5.39.21,6.13,4,.11.6.23,1.2.39,1.79.61,2.25,1.06,2.45,3.69,1.58-.92-3-.51-6.49-3.29-8.93.44-.35.79-.61,1.11-.89A4.86,4.86,0,0,0,530,39a4.47,4.47,0,0,0-3.83-3.5A22.34,22.34,0,0,0,517.51,35.62Z"/><path class="cls-2" d="M215.84,141.21l-10.46,12c-1.61-1.21-3-2.26-4.39-3.28-5.78-4.23-12.25-6.21-19.33-5.17-8.58,1.25-14.58,6.22-18,14.11a27.19,27.19,0,0,0-.2,21.52,23.3,23.3,0,0,0,31.24,13.15c2.95-1.23,5.56-3.27,8.3-5a30.3,30.3,0,0,0,2.45-1.86c3.55,3.55,6.93,6.94,10.5,10.53a5.92,5.92,0,0,1-.71,1A39.23,39.23,0,0,1,188.2,210.6c-7.85.4-15.42-.51-22.47-4.17-12.07-6.27-19.09-16.25-21.21-29.6-1.73-10.91.25-21.2,6.53-30.37,7.5-11,18.24-16.36,31.35-17.2a49.55,49.55,0,0,1,17.69,2,37.64,37.64,0,0,1,14.23,8.24C214.82,140,215.23,140.53,215.84,141.21Z"/><path class="cls-2" d="M405.11,130.23c.08,1.2.21,2.22.21,3.24q0,20.52,0,41.05v1.31c0,2.85.11,2.93,3,3,2.43,0,4.86,0,7.47,0V192l-10.46.38v3.2c0,3.77,0,7.54,0,11.31,0,2.29-.18,2.48-2.32,2.5-3.86,0-7.71,0-11.57,0a15.29,15.29,0,0,1-2-.32c0-.95-.11-1.8-.12-2.65,0-3.6,0-7.2,0-10.79,0-3.31-.15-3.45-3.39-3.45-10.44,0-20.87,0-31.31,0-4.78,0-4.06.52-5.23-4.21-.46-1.88-.77-3.79-1.31-5.63a3.47,3.47,0,0,1,.79-3.61c4.68-5.34,9.31-10.73,13.95-16.1l25.1-29.07a14.71,14.71,0,0,0,1-1.21,5.19,5.19,0,0,1,4.94-2.32c2.8.15,5.61,0,8.42.05C403.17,130.05,404,130.16,405.11,130.23Zm-16.18,23.31a21.43,21.43,0,0,0-1.81,1.6Q378,165.81,368.89,176.5a12.38,12.38,0,0,0-1.05,1.82,4.9,4.9,0,0,0,1.23.41c6.12,0,12.25.07,18.37,0,1.6,0,1.87-.41,1.88-2.47q0-10.11,0-20.22A21.21,21.21,0,0,0,388.93,153.54Z"/><path class="cls-2" d="M287.46,130.35v3.49q0,20.52,0,41c0,3.9,0,3.9,4,3.91,1.67,0,3.34,0,5,0,.88,0,1.62.31,1.62,1.32,0,3.84,0,7.68,0,11.77-1.09.1-1.93.23-2.77.25-1.4,0-2.81,0-4.21,0-3.51,0-3.59.08-3.6,3.48,0,3.6,0,7.19,0,10.79,0,.85-.08,1.7-.14,2.75H272c-.09-1-.23-2-.23-2.89,0-3.5,0-7,0-10.52s-.19-3.6-3.55-3.61c-10.52,0-21,0-31.57,0-4.27,0-3.84.55-4.89-4-.45-2-.86-3.94-1.38-5.88a3.52,3.52,0,0,1,.84-3.59c5.09-5.8,10.07-11.69,15.11-17.53,8.48-9.82,17-19.6,25.44-29.45a4.21,4.21,0,0,1,3.59-1.71c3.15.06,6.31,0,9.47,0C285.57,130.06,286.33,130.22,287.46,130.35Zm-37.14,48.2c.9.1,1.58.22,2.26.23,5.43,0,10.86,0,16.29,0,2.53,0,2.85-.31,2.86-2.92,0-6.57,0-13.14,0-19.7a14.52,14.52,0,0,0-.37-2.26C269.08,155.16,251.2,176.12,250.32,178.55Z"/><path class="cls-2" d="M393.41,293.66c1,.37,1.76.69,2.56,1,4.15,1.48,8.16,3.22,11.52,6.17a19.77,19.77,0,0,1,6.93,14.76c.51,11.74-6.26,19.86-15.7,23.77a41.9,41.9,0,0,1-15.86,3.31c-13.86.09-27.72.05-41.58.05-.68,0-1.37-.11-2.32-.19-.09-1-.23-1.93-.23-2.86q0-44.86,0-89.73c0-2.82.11-2.93,3-2.94,12.81,0,25.62,0,38.43,0a35.35,35.35,0,0,1,18.59,4.91c8.19,5,11.39,13,10.1,22.27-1.14,8.13-5.75,13.74-12.87,17.47-.7.37-1.39.74-2.07,1.13C393.76,292.85,393.73,293.06,393.41,293.66Zm-27.08,43.15v-.1c6.14,0,12.29.2,18.42-.06a27.74,27.74,0,0,0,16.57-5.91c7.85-6.26,9.05-18,2.57-25.31a20.05,20.05,0,0,0-8-5.33,41.85,41.85,0,0,0-14.92-2.73q-16.46,0-32.89,0c-2.84,0-3.06.17-3.06,2.93q0,16.83,0,33.68c0,2.56.29,2.81,2.93,2.82C354.05,336.82,360.19,336.81,366.33,336.81Zm-1.8-84.17c-5.44,0-10.88,0-16.32,0-3,0-3.23.22-3.24,3.08q0,16.32,0,32.64c0,2.72.33,3.05,3,3.06,10.44,0,20.88.12,31.32,0a26.52,26.52,0,0,0,15.59-4.84c6-4.39,8.35-10.5,7.55-17.73-.74-6.74-4.78-11.09-10.89-13.68a33,33,0,0,0-12.83-2.48C374,252.61,369.27,252.64,364.53,252.64Z"/><path class="cls-2" d="M317.24,342.35a7.57,7.57,0,0,1-.95.31c-5.6.32-5.62.33-8-4.75-3-6.61-6.1-13.22-9-19.89a3.56,3.56,0,0,0-3.79-2.46q-26.07.07-52.13,0a3.68,3.68,0,0,0-3.94,2.6c-3.21,7.4-6.69,14.69-9.92,22.08-.84,1.93-1.92,2.76-4,2.49a32.18,32.18,0,0,0-3.6,0c.47-1.18.76-2,1.13-2.86q7.89-17.08,15.79-34.16,12.93-27.94,25.85-55.9c.3-.63.63-1.25.88-1.91a2.61,2.61,0,0,1,2.87-1.76c5.06.12,4.06-.6,6,3.7q20.75,44.78,41.43,89.56C316.39,340.3,316.77,341.26,317.24,342.35ZM244.1,309.5c2.14.54,42.33.87,49,.41a14.67,14.67,0,0,0,2-.47c-.45-1.16-.77-2.12-1.19-3q-7.32-16.17-14.66-32.33c-2.69-5.91-5.35-11.82-8.08-17.71-.4-.88-.54-2.06-1.75-2.38C267.87,255.77,244.46,307,244.1,309.5Z"/><path class="cls-2" d="M333.63,149.4v59.7a19.14,19.14,0,0,1-2.23.28c-3.86,0-7.73,0-11.59,0-2.34,0-2.5-.18-2.5-2.6q0-16.84,0-33.7,0-10.53,0-21.06c0-2.68.12-2.79,2.85-2.81,3.68,0,7.37,0,11.06,0C331.9,149.23,332.59,149.32,333.63,149.4Z"/><path class="cls-2" d="M208.31,336.81v5.36c-2,.63-59.28.8-62.34.24-.61-1.88-.81-91.45-.2-95,1.42-.82,3-.51,4.54-.35a2.07,2.07,0,0,1,1.24,1.35,10.28,10.28,0,0,1,.1,2.61q0,40.41,0,80.81c0,5.53,0,4.93,4.8,4.93q24.23,0,48.44,0Z"/><path class="cls-2" d="M334.09,141.31a16.41,16.41,0,0,1-2,.27c-4.2,0-8.4,0-12.6,0-2.24,0-2.43-.2-2.45-2.4,0-3.33,0-6.65,0-10,0-1.79.26-2.06,1.95-2.08,4.64,0,9.28,0,13.91,0a4.84,4.84,0,0,1,1.15.33Z"/><path d="M517.51,35.62a22.34,22.34,0,0,1,8.69-.12A4.47,4.47,0,0,1,530,39a4.86,4.86,0,0,1-1.59,5.19c-.32.28-.67.54-1.11.89,2.78,2.44,2.37,5.91,3.29,8.93-2.63.87-3.08.67-3.69-1.58-.16-.59-.28-1.19-.39-1.79-.74-3.83-1.78-4.56-6.13-4v7.69l-2.9.2Zm2.92,8.17a7.28,7.28,0,0,0,5.26-.67,2.56,2.56,0,0,0,1.37-2.61A2.78,2.78,0,0,0,525.13,38a7.06,7.06,0,0,0-4.7-.13Z"/><path class="cls-1" d="M388.93,153.54a21.21,21.21,0,0,1,.39,2.52q0,10.11,0,20.22c0,2.06-.28,2.45-1.88,2.47-6.12.05-12.25,0-18.37,0a4.9,4.9,0,0,1-1.23-.41,12.38,12.38,0,0,1,1.05-1.82q9.09-10.69,18.23-21.36A21.43,21.43,0,0,1,388.93,153.54Z"/><path class="cls-1" d="M250.32,178.55c.88-2.43,18.76-23.39,21-24.65a14.52,14.52,0,0,1,.37,2.26c0,6.56,0,13.13,0,19.7,0,2.61-.33,2.91-2.86,2.92-5.43,0-10.86,0-16.29,0C251.9,178.77,251.22,178.65,250.32,178.55Z"/><path class="cls-1" d="M366.33,336.81c-6.14,0-12.28,0-18.42,0-2.64,0-2.93-.26-2.93-2.82q0-16.85,0-33.68c0-2.76.22-2.93,3.06-2.93q16.44,0,32.89,0a41.85,41.85,0,0,1,14.92,2.73,20.05,20.05,0,0,1,8,5.33c6.48,7.29,5.28,19.05-2.57,25.31a27.74,27.74,0,0,1-16.57,5.91c-6.13.26-12.28.06-18.42.06Z"/><path class="cls-1" d="M364.53,252.64c4.74,0,9.47,0,14.21,0a33,33,0,0,1,12.83,2.48c6.11,2.59,10.15,6.94,10.89,13.68.8,7.23-1.54,13.34-7.55,17.73a26.52,26.52,0,0,1-15.59,4.84c-10.44.16-20.88.06-31.32,0-2.7,0-3-.34-3-3.06q0-16.32,0-32.64c0-2.86.26-3.07,3.24-3.08C353.65,252.62,359.09,252.64,364.53,252.64Z"/><path class="cls-1" d="M244.1,309.5c.36-2.47,23.77-53.73,25.32-55.52,1.21.32,1.35,1.5,1.75,2.38,2.73,5.89,5.39,11.8,8.08,17.71q7.33,16.15,14.66,32.33c.42.92.74,1.88,1.19,3a14.67,14.67,0,0,1-2,.47C286.43,310.37,246.24,310,244.1,309.5Z"/><path class="cls-1" d="M520.43,43.79v-6a7.06,7.06,0,0,1,4.7.13,2.78,2.78,0,0,1,1.93,2.55,2.56,2.56,0,0,1-1.37,2.61A7.28,7.28,0,0,1,520.43,43.79Z"/></g></g></svg>